<svg width="166" height="35" viewBox="0 0 166 35" fill="none" xmlns="http://www.w3.org/2000/svg">
<path d="M3.536 19.948C7.388 18.904 10.016 16.672 11.492 13.792C12.968 16.528 15.56 18.652 19.376 19.624L21.464 16.024C16.604 14.764 14.192 11.776 13.868 8.608H20.564V4.828H13.832V1.228H9.044V4.828H2.384V8.608H9.008C8.684 11.92 6.344 15.016 1.412 16.312L3.536 19.948ZM13.832 18.976H9.044V24.016C6.02 24.124 3.14 24.124 0.692 24.124L1.304 27.976C6.992 27.94 14.804 27.904 21.932 26.464L21.644 23.008C19.124 23.404 16.496 23.62 13.832 23.8V18.976ZM23.444 0.903999V34.168H28.196V0.903999H23.444ZM41.5852 22.288H36.8332V33.52H60.4852V29.74H41.5852V22.288ZM58.8292 15.628C59.5852 11.596 59.5852 8.464 59.5852 5.656V2.776H36.7612V6.556H54.9052C54.9052 9.148 54.7972 11.956 54.0772 15.628H33.0532V19.408H63.0772V15.628H58.8292ZM82.7146 22.108H78.4666V8.068H82.7146V22.108ZM90.3106 12.964H87.1066V4.324H74.0386V25.816H87.1066V16.816H90.3106V32.584H94.7386V1.444H90.3106V12.964ZM97.0426 0.903999V34.06H101.543V0.903999H97.0426ZM118.46 3.496H113.708V8.32C113.708 14.764 110.972 21.172 105.176 23.656L108.02 27.58C111.98 25.708 114.68 22.144 116.156 17.716C117.632 21.784 120.188 25.06 124.004 26.788L126.704 22.936C121.088 20.524 118.46 14.476 118.46 8.32V3.496ZM128.324 0.903999V34.168H133.076V0.903999H128.324ZM150.929 8.032H157.769V4.108H139.193V8.032H146.105V9.868C146.105 15.52 143.405 21.604 137.861 24.088L140.561 27.868C144.449 26.104 147.113 22.468 148.589 18.148C150.065 22.144 152.693 25.384 156.545 27.04L159.137 23.296C153.593 20.992 150.929 15.268 150.929 9.868V8.032ZM160.829 0.939999V34.096H165.581V0.939999H160.829Z" fill="black"/>
</svg>
